Coordinates
version=1
nRows=38
nColumns=12
inDegrees=yes

Units are S.I. units (second, meters, Newtons, ...)
Angles are in degrees

endheader
time	SC_y	SC_z	SC_x	AC_y	AC_z	AC_x	GH_y	GH_z	GH_yy	EL_x	PS_y
       0.0              -23.07           17.1          32.13          46.52         0.5055         -16.61          166.8         -17.77          133.7          119.1          62.52
   0.02865              -23.07           17.1          32.13          46.52         0.5037         -16.61          166.7         -17.76          133.7          119.1          62.53
    0.0573              -23.08          17.09          32.13          46.52         0.5018         -16.61          166.7         -17.76          133.6          119.1          62.54
   0.08595              -23.08          17.09          32.13          46.52         0.4998         -16.61          166.6         -17.76          133.6          119.1          62.54
    0.1146              -23.08          17.09          32.14          46.51         0.4977         -16.61          166.6         -17.75          133.6          119.1          62.55
    0.1432              -23.09          17.08          32.14          46.51         0.4954          -16.6          166.5         -17.75          133.6          119.1          62.56
    0.1719              -23.09          17.08          32.14          46.51          0.493          -16.6          166.5         -17.74          133.6          119.0          62.56
    0.2005              -23.09          17.07          32.14          46.51         0.4904          -16.6          166.4         -17.74          133.5          119.0          62.57
    0.2292               -23.1          17.07          32.14           46.5         0.4876          -16.6          166.3         -17.73          133.5          119.0          62.58
    0.2578               -23.1          17.06          32.14           46.5         0.4846          -16.6          166.3         -17.73          133.5          119.0          62.59
    0.2865              -23.11          17.06          32.14           46.5         0.4814         -16.59          166.2         -17.72          133.5          119.0           62.6
    0.3151              -23.11          17.05          32.15          46.49          0.478         -16.59          166.1         -17.72          133.4          118.9          62.61
    0.3438              -23.12          17.05          32.15          46.49         0.4742         -16.59          166.0         -17.71          133.4          118.9          62.62
    0.3724              -23.12          17.04          32.15          46.48         0.4702         -16.58          165.9          -17.7          133.4          118.9          62.64
    0.4011              -23.13          17.03          32.15          46.48         0.4659         -16.58          165.8         -17.69          133.3          118.9          62.65
    0.4297              -23.14          17.03          32.16          46.47         0.4612         -16.58          165.7         -17.68          133.3          118.8          62.66
    0.4584              -23.14          17.02          32.16          46.47          0.456         -16.57          165.6         -17.67          133.3          118.8          62.68
     0.487              -23.15          17.01          32.16          46.46         0.4505         -16.57          165.5         -17.66          133.2          118.8           62.7
    0.5157              -23.16           17.0          32.17          46.45         0.4444         -16.57          165.3         -17.65          133.2          118.7          62.72
    0.5443              -23.17          16.99          32.17          46.44         0.4377         -16.56          165.2         -17.64          133.1          118.7          62.74
     0.573              -23.18          16.98          32.17          46.44         0.4304         -16.55          165.0         -17.62          133.1          118.6          62.76
    0.6016              -23.19          16.96          32.18          46.43         0.4223         -16.55          164.8         -17.61          133.0          118.6          62.79
    0.6303               -23.2          16.95          32.18          46.42         0.4134         -16.54          164.6         -17.59          132.9          118.5          62.81
    0.6589              -23.22          16.93          32.19           46.4         0.4035         -16.53          164.4         -17.57          132.8          118.5          62.85
    0.6876              -23.23          16.91           32.2          46.39         0.3926         -16.53          164.1         -17.55          132.7          118.4          62.88
    0.7162              -23.25          16.89           32.2          46.38         0.3803         -16.52          163.8         -17.53          132.6          118.3          62.92
    0.7449              -23.27          16.87          32.21          46.36         0.3666         -16.51          163.5          -17.5          132.5          118.2          62.96
    0.7735              -23.29          16.85          32.22          46.34         0.3512         -16.49          163.1         -17.47          132.4          118.1          63.01
    0.8022              -23.32          16.82          32.23          46.32         0.3338         -16.48          162.7         -17.44          132.3          118.0          63.07
    0.8308              -23.35          16.79          32.24           46.3          0.314         -16.47          162.2          -17.4          132.1          117.9          63.13
    0.8595              -23.38          16.75          32.25          46.27         0.2914         -16.45          161.7         -17.36          131.9          117.7           63.2
    0.8881              -23.42          16.71          32.27          46.24         0.2655         -16.43          161.1         -17.31          131.7          117.6          63.28
    0.9168              -23.46          16.66          32.29          46.21         0.2356         -16.41          160.4         -17.25          131.4          117.4          63.38
    0.9454              -23.51           16.6          32.31          46.17         0.2008         -16.38          159.6         -17.19          131.2          117.2          63.49
    0.9741              -23.57          16.54          32.33          46.12         0.1601         -16.35          158.6         -17.11          130.8          116.9          63.61
     1.003              -23.64          16.46          32.36          46.07         0.1122         -16.31          157.5         -17.02          130.4          116.6          63.76
     1.031              -23.72          16.36          32.39           46.0        0.05518         -16.27          156.2         -16.91          130.0          116.2          63.94
      1.06              -23.82          16.25          32.43          45.92       -0.01313         -16.22          154.5         -16.78          129.4          115.8          64.16
